<svg width="245" height="69" viewBox="0 0 245 69" fill="none" xmlns="http://www.w3.org/2000/svg">
<path d="M15.0415 68.8091C12.2657 68.8091 9.72757 68.1099 7.42696 66.7116C5.15136 65.3132 3.33838 63.4405 1.98803 61.0933C0.662675 58.7211 0 56.0867 0 53.1902L0.0750198 29.2563C0.0750198 26.4097 0.725192 23.8377 2.02554 21.5405C3.32588 19.2182 5.11385 17.358 7.38945 15.9596C9.69006 14.5363 12.2407 13.8247 15.0415 13.8247C17.8922 13.8247 20.4304 14.5114 22.656 15.8847C24.9066 17.2581 26.6946 19.1184 28.0199 21.4656C29.3703 23.7878 30.0454 26.3847 30.0454 29.2563V32.7771C30.0454 32.9768 29.9454 33.0767 29.7454 33.0767H21.1181C21.1181 33.0767 20.818 32.9768 20.818 32.7771V29.2563C20.818 27.5583 20.2679 26.0975 19.1676 24.874C18.0673 23.6504 16.6919 23.0387 15.0415 23.0387C13.216 23.0387 11.8156 23.6629 10.8404 24.9114C9.86511 26.16 9.37748 27.6082 9.37748 29.2563V53.1902C9.37748 55.063 9.92763 56.5986 11.0279 57.7972C12.1282 58.9708 13.4661 59.5576 15.0415 59.5576C16.6919 59.5576 18.0673 58.9084 19.1676 57.6099C20.2679 56.2865 20.818 54.8133 20.818 53.1902V49.6319C20.818 49.4322 20.918 49.3323 21.1181 49.3323H29.8204C30.0204 49.3323 30.1205 49.4322 30.1205 49.6319V53.1902C30.1205 56.0618 29.4453 58.6836 28.0949 61.0558C26.7196 63.403 24.9066 65.2883 22.656 66.7116C20.4054 68.1099 17.8672 68.8091 15.0415 68.8091Z" fill="white"/>
<path d="M60.8411 68.0599H36.0095C35.8095 68.0599 35.7094 67.9351 35.7094 67.6854L35.7845 15.0607C35.7845 14.811 35.9095 14.6861 36.1596 14.6861H44.7118C44.9619 14.6861 45.0869 14.811 45.0869 15.0607L45.0119 58.6212H60.8411C61.0912 58.6212 61.2162 58.7461 61.2162 58.9958V67.6854C61.2162 67.9351 61.0912 68.0599 60.8411 68.0599Z" fill="white"/>
<path d="M75.3199 68.0599H66.6176C66.3676 68.0599 66.2425 67.9351 66.2425 67.6854L66.3175 14.9858C66.3175 14.786 66.4176 14.6861 66.6176 14.6861H75.2449C75.445 14.6861 75.545 14.786 75.545 14.9858L75.62 67.6854C75.62 67.9351 75.52 68.0599 75.3199 68.0599Z" fill="white"/>
<path d="M91.3742 68.0599H82.6719C82.4718 68.0599 82.3718 67.9351 82.3718 67.6854L82.5218 14.9858C82.5218 14.786 82.6219 14.6861 82.8219 14.6861H92.1994H92.8352L99.6606 21.8093L106.439 14.6861H107.192H116.693C116.918 14.6861 117.031 14.786 117.031 14.9858L117.181 67.6854C117.181 67.9351 117.081 68.0599 116.881 68.0599H108.179C107.979 68.0599 107.879 67.9351 107.879 67.6854L107.804 28.5446L99.6606 35.7221L91.7493 28.5446L91.6742 67.6854C91.6742 67.9351 91.5742 68.0599 91.3742 68.0599Z" fill="white"/>
<path d="M121.125 67.5899L133.081 1.45708C133.144 1.2064 133.301 1.08106 133.552 1.08106H147.532C147.783 1.08106 147.94 1.2064 148.003 1.45708L159.488 67.5899C159.52 67.9033 159.394 68.0599 159.112 68.0599H148.426H146.732L140.33 61.2916L133.928 68.0599H132.234H121.502C121.251 68.0599 121.125 67.9033 121.125 67.5899ZM140.001 23.2193L133.928 52.267L140.33 45.4986L146.732 52.267L140.989 23.2193L140.424 19.6471L140.001 23.2193Z" fill="#6EA9C0"/>
<path d="M183.244 69C179.761 69 176.576 68.1226 173.689 66.3679C170.833 64.6131 168.558 62.2629 166.864 59.3174C165.2 56.3406 164.369 53.0347 164.369 49.3999L164.463 19.3651C164.463 15.7929 165.279 12.5654 166.911 9.68256C168.542 6.76839 170.786 4.43392 173.642 2.67916C176.529 0.893052 179.73 0 183.244 0C186.822 0 190.007 0.861717 192.8 2.58515C195.624 4.30858 197.868 6.64305 199.531 9.58856C201.226 12.5027 202.073 15.7616 202.073 19.3651V23.7834C202.073 24.0341 202.088 40 202.088 40L190.493 29V23.7834V19.3651C190.493 17.2343 189.803 15.4012 188.422 13.8658C187.041 12.3304 185.316 11.5627 183.244 11.5627C180.954 11.5627 179.196 12.346 177.972 13.9128C176.749 15.4796 176.137 17.297 176.137 19.3651V49.3999C176.137 51.75 176.827 53.6771 178.208 55.1812C179.589 56.6539 181.267 57.3903 183.244 57.3903C185.316 57.3903 187.041 56.5756 188.422 54.9462C189.803 53.2854 190.493 51.4366 190.493 49.3999V44.9346L190.5 44.5586H202.167V44.9346V49.3999C202.167 53.0034 201.32 56.2936 199.625 59.2704C197.899 62.2159 195.624 64.5817 192.8 66.3679C189.976 68.1226 186.79 69 183.244 69Z" fill="#6EA9C0"/>
<path d="M231.679 68.0599H220.805C220.523 68.0599 220.382 67.9033 220.382 67.5899V12.6907C220.382 12.6907 208.175 12.6907 207.861 12.6907C207.547 12.6907 207.39 12.5341 207.39 12.2207L207.484 1.45708C207.484 1.2064 207.61 1.08106 207.861 1.08106H244.482C244.827 1.08106 245 1.2064 245 1.45708V12.2207C245 12.5341 244.874 12.6907 244.623 12.6907H231.961L232.055 67.5899C232.055 67.9033 231.93 68.0599 231.679 68.0599Z" fill="#6EA9C0"/>
</svg>
