<svg width="245" height="89" viewBox="0 0 245 89" fill="none" xmlns="http://www.w3.org/2000/svg">
<path d="M15.0415 78.8091C12.2657 78.8091 9.72757 78.1099 7.42696 76.7116C5.15136 75.3132 3.33838 73.4405 1.98803 71.0933C0.662675 68.7211 0 66.0867 0 63.1902L0.0750198 39.2563C0.0750198 36.4097 0.725192 33.8377 2.02554 31.5405C3.32588 29.2182 5.11385 27.358 7.38945 25.9596C9.69006 24.5363 12.2407 23.8247 15.0415 23.8247C17.8922 23.8247 20.4304 24.5114 22.656 25.8847C24.9066 27.2581 26.6946 29.1184 28.0199 31.4656C29.3703 33.7878 30.0454 36.3847 30.0454 39.2563V42.7771C30.0454 42.9768 29.9454 43.0767 29.7454 43.0767H21.1181C21.1181 43.0767 20.818 42.9768 20.818 42.7771V39.2563C20.818 37.5583 20.2679 36.0975 19.1676 34.874C18.0673 33.6504 16.6919 33.0387 15.0415 33.0387C13.216 33.0387 11.8156 33.6629 10.8404 34.9114C9.86511 36.16 9.37748 37.6082 9.37748 39.2563V63.1902C9.37748 65.063 9.92763 66.5986 11.0279 67.7972C12.1282 68.9708 13.4661 69.5576 15.0415 69.5576C16.6919 69.5576 18.0673 68.9084 19.1676 67.6099C20.2679 66.2865 20.818 64.8133 20.818 63.1902V59.6319C20.818 59.4322 20.918 59.3323 21.1181 59.3323H29.8204C30.0204 59.3323 30.1205 59.4322 30.1205 59.6319V63.1902C30.1205 66.0618 29.4453 68.6836 28.0949 71.0558C26.7196 73.403 24.9066 75.2883 22.656 76.7116C20.4054 78.1099 17.8672 78.8091 15.0415 78.8091Z" fill="#171A1C"/>
<path d="M60.8411 78.0599H36.0095C35.8095 78.0599 35.7094 77.9351 35.7094 77.6854L35.7845 25.0607C35.7845 24.811 35.9095 24.6861 36.1596 24.6861H44.7118C44.9619 24.6861 45.0869 24.811 45.0869 25.0607L45.0119 68.6212H60.8411C61.0912 68.6212 61.2162 68.7461 61.2162 68.9958V77.6854C61.2162 77.9351 61.0912 78.0599 60.8411 78.0599Z" fill="#171A1C"/>
<path d="M75.3199 78.0599H66.6176C66.3676 78.0599 66.2425 77.9351 66.2425 77.6854L66.3175 24.9858C66.3175 24.786 66.4176 24.6861 66.6176 24.6861H75.2449C75.445 24.6861 75.545 24.786 75.545 24.9858L75.62 77.6854C75.62 77.9351 75.52 78.0599 75.3199 78.0599Z" fill="#171A1C"/>
<path d="M91.3742 78.0599H82.6719C82.4718 78.0599 82.3718 77.9351 82.3718 77.6854L82.5218 24.9858C82.5218 24.786 82.6219 24.6861 82.8219 24.6861H92.1994H92.8352L99.6606 31.8093L106.439 24.6861H107.192H116.693C116.918 24.6861 117.031 24.786 117.031 24.9858L117.181 77.6854C117.181 77.9351 117.081 78.0599 116.881 78.0599H108.179C107.979 78.0599 107.879 77.9351 107.879 77.6854L107.804 38.5446L99.6606 45.7221L91.7493 38.5446L91.6742 77.6854C91.6742 77.9351 91.5742 78.0599 91.3742 78.0599Z" fill="#171A1C"/>
<path d="M121.125 77.5899L133.081 11.4571C133.144 11.2064 133.301 11.0811 133.552 11.0811H147.532C147.783 11.0811 147.94 11.2064 148.003 11.4571L159.488 77.5899C159.52 77.9033 159.394 78.0599 159.112 78.0599H148.426H146.732L140.33 71.2916L133.928 78.0599H132.234H121.502C121.251 78.0599 121.125 77.9033 121.125 77.5899ZM140.001 33.2193L133.928 62.267L140.33 55.4986L146.732 62.267L140.989 33.2193L140.424 29.6471L140.001 33.2193Z" fill="url(#paint0_linear_327_950)"/>
<path d="M183.244 79C179.761 79 176.576 78.1226 173.689 76.3679C170.833 74.6131 168.558 72.2629 166.864 69.3174C165.2 66.3406 164.369 63.0347 164.369 59.3999L164.463 29.3651C164.463 25.7929 165.279 22.5654 166.911 19.6826C168.542 16.7684 170.786 14.4339 173.642 12.6792C176.529 10.8931 179.73 10 183.244 10C186.822 10 190.007 10.8617 192.8 12.5852C195.624 14.3086 197.868 16.6431 199.531 19.5886C201.226 22.5027 202.073 25.7616 202.073 29.3651V33.7834C202.073 34.0341 202.088 50 202.088 50L190.493 39V33.7834V29.3651C190.493 27.2343 189.803 25.4012 188.422 23.8658C187.041 22.3304 185.316 21.5627 183.244 21.5627C180.954 21.5627 179.196 22.346 177.972 23.9128C176.749 25.4796 176.137 27.297 176.137 29.3651V59.3999C176.137 61.75 176.827 63.6771 178.208 65.1812C179.589 66.654 181.267 67.3903 183.244 67.3903C185.316 67.3903 187.041 66.5756 188.422 64.9462C189.803 63.2854 190.493 61.4366 190.493 59.3999V54.9346L190.5 54.5586H202.167V54.9346V59.3999C202.167 63.0034 201.32 66.2936 199.625 69.2704C197.899 72.2159 195.624 74.5817 192.8 76.3679C189.976 78.1226 186.79 79 183.244 79Z" fill="url(#paint1_linear_327_950)"/>
<path d="M231.679 78.0599H220.805C220.523 78.0599 220.382 77.9033 220.382 77.5899V22.6907C220.382 22.6907 208.175 22.6907 207.861 22.6907C207.547 22.6907 207.39 22.5341 207.39 22.2207L207.484 11.4571C207.484 11.2064 207.61 11.0811 207.861 11.0811H244.482C244.827 11.0811 245 11.2064 245 11.4571V22.2207C245 22.5341 244.874 22.6907 244.623 22.6907H231.961L232.055 77.5899C232.055 77.9033 231.93 78.0599 231.679 78.0599Z" fill="url(#paint2_linear_327_950)"/>
<defs>
<linearGradient id="paint0_linear_327_950" x1="0" y1="44.5" x2="245" y2="44.5" gradientUnits="userSpaceOnUse">
<stop stop-color="#44A3DA"/>
<stop offset="0.7" stop-color="#2775C2"/>
<stop offset="1" stop-color="#0A47A9"/>
</linearGradient>
<linearGradient id="paint1_linear_327_950" x1="0" y1="44.5" x2="245" y2="44.5" gradientUnits="userSpaceOnUse">
<stop stop-color="#44A3DA"/>
<stop offset="0.7" stop-color="#2775C2"/>
<stop offset="1" stop-color="#0A47A9"/>
</linearGradient>
<linearGradient id="paint2_linear_327_950" x1="0" y1="44.5" x2="245" y2="44.5" gradientUnits="userSpaceOnUse">
<stop stop-color="#44A3DA"/>
<stop offset="0.7" stop-color="#2775C2"/>
<stop offset="1" stop-color="#0A47A9"/>
</linearGradient>
</defs>
</svg>
