<svg width="1046" height="109" viewBox="0 0 1046 109" fill="none" xmlns="http://www.w3.org/2000/svg">
<g clip-path="url(#clip0_169_480)">
<path d="M35.0415 88.8091C32.2657 88.8091 29.7276 88.1099 27.427 86.7116C25.1514 85.3132 23.3384 83.4405 21.988 81.0933C20.6627 78.7211 20 76.0867 20 73.1902L20.075 49.2563C20.075 46.4097 20.7252 43.8377 22.0255 41.5405C23.3259 39.2182 25.1139 37.358 27.3895 35.9596C29.6901 34.5363 32.2407 33.8247 35.0415 33.8247C37.8922 33.8247 40.4304 34.5114 42.656 35.8847C44.9066 37.2581 46.6946 39.1184 48.0199 41.4656C49.3703 43.7878 50.0454 46.3847 50.0454 49.2563V52.7771C50.0454 52.9768 49.9454 53.0767 49.7454 53.0767H41.1181C41.1181 53.0767 40.818 52.9768 40.818 52.7771V49.2563C40.818 47.5583 40.2679 46.0975 39.1676 44.874C38.0673 43.6504 36.6919 43.0387 35.0415 43.0387C33.216 43.0387 31.8156 43.6629 30.8404 44.9114C29.8651 46.16 29.3775 47.6082 29.3775 49.2563V73.1902C29.3775 75.063 29.9276 76.5986 31.0279 77.7972C32.1282 78.9708 33.4661 79.5576 35.0415 79.5576C36.6919 79.5576 38.0673 78.9084 39.1676 77.6099C40.2679 76.2865 40.818 74.8133 40.818 73.1902V69.6319C40.818 69.4322 40.918 69.3323 41.1181 69.3323H49.8204C50.0204 69.3323 50.1205 69.4322 50.1205 69.6319V73.1902C50.1205 76.0618 49.4453 78.6836 48.0949 81.0558C46.7196 83.403 44.9066 85.2883 42.656 86.7116C40.4054 88.1099 37.8672 88.8091 35.0415 88.8091Z" fill="#171A1C"/>
<path d="M80.8411 88.0599H56.0095C55.8095 88.0599 55.7094 87.9351 55.7094 87.6854L55.7845 35.0607C55.7845 34.811 55.9095 34.6861 56.1596 34.6861H64.7118C64.9619 34.6861 65.0869 34.811 65.0869 35.0607L65.0119 78.6212H80.8411C81.0912 78.6212 81.2162 78.7461 81.2162 78.9958V87.6854C81.2162 87.9351 81.0912 88.0599 80.8411 88.0599Z" fill="#171A1C"/>
<path d="M95.3199 88.0599H86.6176C86.3676 88.0599 86.2425 87.9351 86.2425 87.6854L86.3175 34.9858C86.3175 34.786 86.4176 34.6861 86.6176 34.6861H95.2449C95.445 34.6861 95.545 34.786 95.545 34.9858L95.62 87.6854C95.62 87.9351 95.52 88.0599 95.3199 88.0599Z" fill="#171A1C"/>
<path d="M111.374 88.0599H102.672C102.472 88.0599 102.372 87.9351 102.372 87.6854L102.522 34.9858C102.522 34.786 102.622 34.6861 102.822 34.6861H112.199H112.835L119.661 41.8093L126.439 34.6861H127.192H136.693C136.918 34.6861 137.031 34.786 137.031 34.9858L137.181 87.6854C137.181 87.9351 137.081 88.0599 136.881 88.0599H128.179C127.979 88.0599 127.879 87.9351 127.879 87.6854L127.804 48.5446L119.661 55.7221L111.749 48.5446L111.674 87.6854C111.674 87.9351 111.574 88.0599 111.374 88.0599Z" fill="#171A1C"/>
<path d="M141.125 87.5899L153.081 21.4571C153.144 21.2064 153.301 21.0811 153.552 21.0811H167.532C167.783 21.0811 167.94 21.2064 168.003 21.4571L179.488 87.5899C179.52 87.9033 179.394 88.0599 179.112 88.0599H168.426H166.732L160.33 81.2916L153.928 88.0599H152.234H141.502C141.251 88.0599 141.125 87.9033 141.125 87.5899ZM160.001 43.2193L153.928 72.267L160.33 65.4986L166.732 72.267L160.989 43.2193L160.424 39.6471L160.001 43.2193Z" fill="url(#paint0_linear_169_480)"/>
<path d="M203.244 89C199.761 89 196.576 88.1226 193.689 86.3679C190.833 84.6131 188.558 82.2629 186.864 79.3174C185.2 76.3406 184.369 73.0347 184.369 69.3999L184.463 39.3651C184.463 35.7929 185.279 32.5654 186.911 29.6826C188.542 26.7684 190.786 24.4339 193.642 22.6792C196.529 20.8931 199.73 20 203.244 20C206.822 20 210.007 20.8617 212.8 22.5852C215.624 24.3086 217.868 26.6431 219.531 29.5886C221.226 32.5027 222.073 35.7616 222.073 39.3651V43.7834C222.073 44.0341 222.088 60 222.088 60L210.493 49V43.7834V39.3651C210.493 37.2343 209.803 35.4012 208.422 33.8658C207.041 32.3304 205.316 31.5627 203.244 31.5627C200.954 31.5627 199.196 32.346 197.972 33.9128C196.749 35.4796 196.137 37.297 196.137 39.3651V69.3999C196.137 71.75 196.827 73.6771 198.208 75.1812C199.589 76.654 201.267 77.3903 203.244 77.3903C205.316 77.3903 207.041 76.5756 208.422 74.9462C209.803 73.2854 210.493 71.4366 210.493 69.3999V64.9346L210.5 64.5586H222.167V64.9346V69.3999C222.167 73.0034 221.32 76.2936 219.625 79.2704C217.899 82.2159 215.624 84.5817 212.8 86.3679C209.976 88.1226 206.79 89 203.244 89Z" fill="url(#paint1_linear_169_480)"/>
<path d="M251.679 88.0599H240.805C240.523 88.0599 240.382 87.9033 240.382 87.5899V32.6907C240.382 32.6907 228.175 32.6907 227.861 32.6907C227.547 32.6907 227.39 32.5341 227.39 32.2207L227.484 21.4571C227.484 21.2064 227.61 21.0811 227.861 21.0811H264.482C264.827 21.0811 265 21.2064 265 21.4571V32.2207C265 32.5341 264.874 32.6907 264.623 32.6907H251.961L252.055 87.5899C252.055 87.9033 251.93 88.0599 251.679 88.0599Z" fill="url(#paint2_linear_169_480)"/>
<path d="M287.176 66.836C285.896 66.836 284.77 66.6333 283.8 66.228C282.84 65.8227 282.093 65.2413 281.56 64.484C281.026 63.7267 280.76 62.8147 280.76 61.748C280.76 60.6067 281.058 59.6627 281.656 58.916C282.264 58.1693 283.096 57.5933 284.152 57.188C285.218 56.772 286.429 56.5 287.784 56.372C289.8 56.1693 291.218 55.972 292.04 55.78C292.872 55.588 293.288 55.2733 293.288 54.836C293.288 54.8253 293.288 54.8147 293.288 54.804C293.288 53.94 292.92 53.284 292.184 52.836C291.448 52.388 290.397 52.164 289.032 52.164C287.592 52.164 286.477 52.42 285.688 52.932C284.909 53.4333 284.52 54.2333 284.52 55.332H281.112C281.112 54.0307 281.448 52.9267 282.12 52.02C282.802 51.1133 283.741 50.4253 284.936 49.956C286.13 49.476 287.501 49.236 289.048 49.236C290.466 49.236 291.757 49.4547 292.92 49.892C294.093 50.3187 295.026 50.9587 295.72 51.812C296.413 52.6653 296.76 53.7267 296.76 54.996C296.76 55.22 296.76 55.444 296.76 55.668C296.76 55.8813 296.76 56.1 296.76 56.324V63.108C296.76 63.5027 296.776 63.8867 296.808 64.26C296.84 64.6227 296.898 64.948 296.984 65.236C297.08 65.5667 297.192 65.8387 297.32 66.052C297.458 66.2653 297.57 66.4147 297.656 66.5H294.2C294.136 66.436 294.04 66.3027 293.912 66.1C293.794 65.8867 293.688 65.6413 293.592 65.364C293.496 65.0973 293.421 64.7933 293.368 64.452C293.325 64.1 293.304 63.7213 293.304 63.316L293.944 63.764C293.624 64.3827 293.138 64.9213 292.488 65.38C291.848 65.8387 291.074 66.196 290.168 66.452C289.272 66.708 288.274 66.836 287.176 66.836ZM287.896 63.956C288.888 63.956 289.789 63.8013 290.6 63.492C291.421 63.172 292.077 62.692 292.568 62.052C293.058 61.4013 293.304 60.5853 293.304 59.604V56.788L294.12 57.86C293.437 58.1267 292.6 58.3453 291.608 58.516C290.626 58.676 289.613 58.8093 288.568 58.916C287.128 59.044 286.045 59.2947 285.32 59.668C284.594 60.0307 284.232 60.6387 284.232 61.492C284.232 62.3133 284.53 62.932 285.128 63.348C285.736 63.7533 286.658 63.956 287.896 63.956ZM307.802 66.788C307.236 66.788 306.671 66.7293 306.106 66.612C305.551 66.4947 305.039 66.2813 304.57 65.972C304.111 65.652 303.743 65.1987 303.466 64.612C303.188 64.0253 303.05 63.2573 303.05 62.308C303.05 62.084 303.05 61.8493 303.05 61.604C303.05 61.3587 303.05 61.108 303.05 60.852V52.388H298.97V49.508H301.114C301.572 49.508 301.93 49.492 302.186 49.46C302.452 49.4173 302.644 49.3267 302.762 49.188C302.89 49.0387 302.97 48.804 303.002 48.484C303.034 48.164 303.05 47.7267 303.05 47.172V43.892H306.522V49.508H311.722V52.388H306.522V59.924C306.522 60.1373 306.522 60.3507 306.522 60.564C306.522 60.7773 306.522 60.9747 306.522 61.156C306.522 62.0093 306.623 62.6813 306.826 63.172C307.039 63.6627 307.519 63.908 308.266 63.908C308.586 63.908 308.89 63.8813 309.178 63.828C309.466 63.7747 309.684 63.716 309.834 63.652V66.484C309.642 66.5587 309.37 66.628 309.018 66.692C308.666 66.756 308.26 66.788 307.802 66.788ZM318.702 41.492V66.5H315.278V41.492H318.702ZM329.238 66.836C327.958 66.836 326.833 66.6333 325.862 66.228C324.902 65.8227 324.155 65.2413 323.622 64.484C323.089 63.7267 322.822 62.8147 322.822 61.748C322.822 60.6067 323.121 59.6627 323.718 58.916C324.326 58.1693 325.158 57.5933 326.214 57.188C327.281 56.772 328.491 56.5 329.846 56.372C331.862 56.1693 333.281 55.972 334.102 55.78C334.934 55.588 335.35 55.2733 335.35 54.836C335.35 54.8253 335.35 54.8147 335.35 54.804C335.35 53.94 334.982 53.284 334.246 52.836C333.51 52.388 332.459 52.164 331.094 52.164C329.654 52.164 328.539 52.42 327.75 52.932C326.971 53.4333 326.582 54.2333 326.582 55.332H323.174C323.174 54.0307 323.51 52.9267 324.182 52.02C324.865 51.1133 325.803 50.4253 326.998 49.956C328.193 49.476 329.563 49.236 331.11 49.236C332.529 49.236 333.819 49.4547 334.982 49.892C336.155 50.3187 337.089 50.9587 337.782 51.812C338.475 52.6653 338.822 53.7267 338.822 54.996C338.822 55.22 338.822 55.444 338.822 55.668C338.822 55.8813 338.822 56.1 338.822 56.324V63.108C338.822 63.5027 338.838 63.8867 338.87 64.26C338.902 64.6227 338.961 64.948 339.046 65.236C339.142 65.5667 339.254 65.8387 339.382 66.052C339.521 66.2653 339.633 66.4147 339.718 66.5H336.262C336.198 66.436 336.102 66.3027 335.974 66.1C335.857 65.8867 335.75 65.6413 335.654 65.364C335.558 65.0973 335.483 64.7933 335.43 64.452C335.387 64.1 335.366 63.7213 335.366 63.316L336.006 63.764C335.686 64.3827 335.201 64.9213 334.55 65.38C333.91 65.8387 333.137 66.196 332.23 66.452C331.334 66.708 330.337 66.836 329.238 66.836ZM329.958 63.956C330.95 63.956 331.851 63.8013 332.662 63.492C333.483 63.172 334.139 62.692 334.63 62.052C335.121 61.4013 335.366 60.5853 335.366 59.604V56.788L336.182 57.86C335.499 58.1267 334.662 58.3453 333.67 58.516C332.689 58.676 331.675 58.8093 330.63 58.916C329.19 59.044 328.107 59.2947 327.382 59.668C326.657 60.0307 326.294 60.6387 326.294 61.492C326.294 62.3133 326.593 62.932 327.19 63.348C327.798 63.7533 328.721 63.956 329.958 63.956ZM349.726 66.836C348.712 66.836 347.758 66.724 346.862 66.5C345.966 66.276 345.176 65.9507 344.494 65.524C343.822 65.0867 343.294 64.548 342.91 63.908C342.536 63.268 342.35 62.5267 342.35 61.684C342.35 61.6093 342.35 61.5347 342.35 61.46C342.35 61.3747 342.35 61.3053 342.35 61.252H345.806C345.806 61.3053 345.806 61.3533 345.806 61.396C345.806 61.4387 345.806 61.4973 345.806 61.572C345.806 62.3507 346.163 62.9427 346.878 63.348C347.603 63.7427 348.584 63.94 349.822 63.94C350.547 63.94 351.208 63.8653 351.806 63.716C352.414 63.5667 352.894 63.3373 353.246 63.028C353.608 62.7187 353.79 62.324 353.79 61.844C353.79 61.0653 353.406 60.5107 352.638 60.18C351.88 59.8493 350.728 59.556 349.182 59.3C348.339 59.1507 347.523 58.9587 346.734 58.724C345.955 58.4893 345.251 58.18 344.622 57.796C344.003 57.4013 343.507 56.916 343.134 56.34C342.771 55.7533 342.59 55.0493 342.59 54.228C342.59 53.1613 342.91 52.2547 343.55 51.508C344.19 50.7613 345.054 50.196 346.142 49.812C347.23 49.428 348.43 49.236 349.742 49.236C351.011 49.236 352.184 49.444 353.262 49.86C354.35 50.2653 355.224 50.8573 355.886 51.636C356.547 52.404 356.878 53.348 356.878 54.468C356.878 54.5107 356.878 54.5587 356.878 54.612C356.878 54.6653 356.878 54.7133 356.878 54.756H353.438C353.438 54.7133 353.438 54.676 353.438 54.644C353.438 54.612 353.438 54.5747 353.438 54.532C353.438 53.9773 353.262 53.524 352.91 53.172C352.558 52.82 352.099 52.5587 351.534 52.388C350.979 52.2067 350.387 52.116 349.758 52.116C349.182 52.116 348.6 52.18 348.014 52.308C347.438 52.4253 346.958 52.6333 346.574 52.932C346.19 53.22 345.998 53.6147 345.998 54.116C345.998 54.628 346.184 55.0387 346.558 55.348C346.931 55.6467 347.459 55.8973 348.142 56.1C348.824 56.292 349.619 56.468 350.526 56.628C351.358 56.7773 352.168 56.9693 352.958 57.204C353.747 57.428 354.456 57.7267 355.086 58.1C355.726 58.4733 356.232 58.9533 356.606 59.54C356.99 60.1267 357.182 60.8467 357.182 61.7C357.182 62.5853 356.979 63.348 356.574 63.988C356.168 64.628 355.614 65.1613 354.91 65.588C354.216 66.004 353.422 66.3133 352.526 66.516C351.64 66.7293 350.707 66.836 349.726 66.836ZM376.078 66.836C374.68 66.836 373.395 66.5 372.222 65.828C371.048 65.1453 370.11 64.1427 369.406 62.82C368.702 61.4973 368.35 59.8813 368.35 57.972C368.35 56.1053 368.707 54.5213 369.422 53.22C370.136 51.9187 371.08 50.932 372.254 50.26C373.427 49.5773 374.702 49.236 376.078 49.236C377.4 49.236 378.627 49.556 379.758 50.196C380.899 50.836 381.816 51.7267 382.51 52.868C383.203 53.9987 383.55 55.3053 383.55 56.788C383.55 56.8307 383.55 56.8733 383.55 56.916C383.55 56.948 383.55 56.98 383.55 57.012L381.534 57.076C381.534 57.044 381.534 57.012 381.534 56.98C381.534 56.9373 381.534 56.9 381.534 56.868C381.534 55.9827 381.31 55.1987 380.862 54.516C380.414 53.8227 379.822 53.2787 379.086 52.884C378.36 52.4787 377.587 52.276 376.766 52.276C375.39 52.276 374.238 52.74 373.31 53.668C372.382 54.5853 371.918 56.02 371.918 57.972C371.918 59.9133 372.382 61.3533 373.31 62.292C374.248 63.22 375.4 63.684 376.766 63.684C377.619 63.684 378.408 63.4813 379.134 63.076C379.859 62.66 380.44 62.0947 380.878 61.38C381.315 60.6653 381.534 59.8493 381.534 58.932L383.55 59.012C383.55 60.484 383.214 61.812 382.542 62.996C381.88 64.18 380.984 65.1187 379.854 65.812C378.734 66.4947 377.475 66.836 376.078 66.836ZM381.534 66.5V41.492H385.022V66.5H381.534ZM390.707 59.22V56.516H403.219L402.739 57.316C402.739 57.252 402.739 57.188 402.739 57.124C402.739 57.0493 402.739 56.9853 402.739 56.932C402.739 56.068 402.552 55.2733 402.179 54.548C401.806 53.812 401.246 53.2253 400.499 52.788C399.763 52.34 398.84 52.116 397.731 52.116C396.622 52.116 395.646 52.356 394.803 52.836C393.971 53.3053 393.32 53.9773 392.851 54.852C392.392 55.716 392.163 56.756 392.163 57.972C392.163 59.2093 392.387 60.276 392.835 61.172C393.283 62.0573 393.928 62.74 394.771 63.22C395.614 63.7 396.622 63.94 397.795 63.94C398.616 63.94 399.326 63.86 399.923 63.7C400.531 63.5293 401.027 63.3053 401.411 63.028C401.806 62.7507 402.104 62.452 402.307 62.132C402.51 61.8013 402.627 61.476 402.659 61.156H406.115C406.051 61.8493 405.822 62.5373 405.427 63.22C405.043 63.892 404.494 64.5053 403.779 65.06C403.075 65.604 402.211 66.0413 401.187 66.372C400.174 66.692 399.006 66.852 397.683 66.852C395.912 66.852 394.36 66.4787 393.027 65.732C391.694 64.9853 390.654 63.9507 389.907 62.628C389.16 61.2947 388.787 59.7693 388.787 58.052C388.787 56.3027 389.166 54.7667 389.923 53.444C390.68 52.1213 391.731 51.092 393.075 50.356C394.419 49.6093 395.96 49.236 397.699 49.236C399.47 49.236 401 49.6093 402.291 50.356C403.592 51.1027 404.595 52.132 405.299 53.444C406.003 54.756 406.355 56.2653 406.355 57.972C406.355 58.1747 406.35 58.4093 406.339 58.676C406.328 58.9427 406.312 59.124 406.291 59.22H390.707ZM426.496 66.836C424.79 66.836 423.259 66.4787 421.904 65.764C420.56 65.0387 419.499 64.0093 418.72 62.676C417.952 61.3427 417.568 59.7747 417.568 57.972C417.568 56.1693 417.952 54.6173 418.72 53.316C419.499 52.004 420.56 50.996 421.904 50.292C423.259 49.588 424.79 49.236 426.496 49.236C427.787 49.236 428.934 49.4333 429.936 49.828C430.939 50.212 431.787 50.724 432.48 51.364C433.174 52.004 433.702 52.708 434.064 53.476C434.427 54.244 434.608 55.012 434.608 55.78C434.608 55.7907 434.608 55.8067 434.608 55.828C434.608 55.8493 434.608 55.8707 434.608 55.892H431.168C431.168 55.8387 431.163 55.78 431.152 55.716C431.142 55.6413 431.131 55.572 431.12 55.508C431.035 54.8787 430.79 54.3187 430.384 53.828C429.979 53.3373 429.446 52.948 428.784 52.66C428.123 52.372 427.35 52.228 426.464 52.228C425.494 52.228 424.598 52.4413 423.776 52.868C422.966 53.284 422.315 53.9187 421.824 54.772C421.334 55.6253 421.088 56.692 421.088 57.972C421.088 59.252 421.328 60.3293 421.808 61.204C422.299 62.068 422.95 62.724 423.76 63.172C424.582 63.62 425.483 63.844 426.464 63.844C427.52 63.844 428.384 63.684 429.056 63.364C429.728 63.0333 430.235 62.596 430.576 62.052C430.918 61.4973 431.115 60.9 431.168 60.26H434.608C434.608 61.028 434.432 61.8067 434.08 62.596C433.728 63.3747 433.211 64.084 432.528 64.724C431.846 65.364 430.998 65.876 429.984 66.26C428.982 66.644 427.819 66.836 426.496 66.836ZM442.108 41.492V66.5H438.684V41.492H442.108ZM446.804 66.5V49.508H450.228V66.5H446.804ZM448.532 45.988C447.935 45.988 447.418 45.828 446.98 45.508C446.554 45.1773 446.34 44.724 446.34 44.148C446.34 43.5827 446.554 43.14 446.98 42.82C447.418 42.4893 447.935 42.324 448.532 42.324C449.119 42.324 449.626 42.4893 450.052 42.82C450.49 43.14 450.708 43.5827 450.708 44.148C450.708 44.724 450.49 45.1773 450.052 45.508C449.626 45.828 449.119 45.988 448.532 45.988ZM465.362 66.5V59.3C465.362 58.6493 465.362 58.0893 465.362 57.62C465.362 57.14 465.362 56.7347 465.362 56.404C465.362 55.988 465.33 55.5453 465.266 55.076C465.213 54.6067 465.085 54.1693 464.882 53.764C464.69 53.348 464.386 53.012 463.97 52.756C463.554 52.5 462.983 52.372 462.258 52.372C461.533 52.372 460.919 52.516 460.418 52.804C459.917 53.092 459.511 53.476 459.202 53.956C458.893 54.4253 458.669 54.9533 458.53 55.54C458.391 56.116 458.322 56.6973 458.322 57.284L456.85 56.484C456.85 55.1507 457.111 53.94 457.634 52.852C458.167 51.7533 458.914 50.8787 459.874 50.228C460.845 49.5667 461.986 49.236 463.298 49.236C464.631 49.236 465.698 49.5133 466.498 50.068C467.309 50.612 467.895 51.3587 468.258 52.308C468.621 53.2467 468.802 54.3133 468.802 55.508C468.802 55.9453 468.802 56.516 468.802 57.22C468.802 57.924 468.802 58.74 468.802 59.668V66.5H465.362ZM454.85 66.5V49.508H458.322V66.5H454.85ZM475.826 66.5V59.316C475.826 58.612 475.826 58.0253 475.826 57.556C475.826 57.076 475.826 56.676 475.826 56.356C475.826 55.9187 475.799 55.4707 475.746 55.012C475.693 54.5427 475.565 54.1107 475.362 53.716C475.159 53.3213 474.845 53.0013 474.418 52.756C474.002 52.5 473.421 52.372 472.674 52.372C471.938 52.372 471.319 52.516 470.818 52.804C470.327 53.0813 469.933 53.4547 469.634 53.924C469.335 54.3827 469.122 54.8893 468.994 55.444C468.866 55.9987 468.802 56.548 468.802 57.092L467.33 56.324C467.33 55.044 467.586 53.8653 468.098 52.788C468.621 51.7107 469.357 50.852 470.306 50.212C471.266 49.5613 472.402 49.236 473.714 49.236C474.994 49.236 476.045 49.492 476.866 50.004C477.687 50.516 478.295 51.2253 478.69 52.132C479.085 53.0387 479.282 54.0893 479.282 55.284C479.282 55.7427 479.282 56.3187 479.282 57.012C479.282 57.7053 479.282 58.5107 479.282 59.428V66.5H475.826ZM489.582 66.836C488.302 66.836 487.177 66.6333 486.206 66.228C485.246 65.8227 484.499 65.2413 483.966 64.484C483.433 63.7267 483.166 62.8147 483.166 61.748C483.166 60.6067 483.465 59.6627 484.062 58.916C484.67 58.1693 485.502 57.5933 486.558 57.188C487.625 56.772 488.835 56.5 490.19 56.372C492.206 56.1693 493.625 55.972 494.446 55.78C495.278 55.588 495.694 55.2733 495.694 54.836C495.694 54.8253 495.694 54.8147 495.694 54.804C495.694 53.94 495.326 53.284 494.59 52.836C493.854 52.388 492.803 52.164 491.438 52.164C489.998 52.164 488.883 52.42 488.094 52.932C487.315 53.4333 486.926 54.2333 486.926 55.332H483.518C483.518 54.0307 483.854 52.9267 484.526 52.02C485.209 51.1133 486.147 50.4253 487.342 49.956C488.537 49.476 489.907 49.236 491.454 49.236C492.873 49.236 494.163 49.4547 495.326 49.892C496.499 50.3187 497.433 50.9587 498.126 51.812C498.819 52.6653 499.166 53.7267 499.166 54.996C499.166 55.22 499.166 55.444 499.166 55.668C499.166 55.8813 499.166 56.1 499.166 56.324V63.108C499.166 63.5027 499.182 63.8867 499.214 64.26C499.246 64.6227 499.305 64.948 499.39 65.236C499.486 65.5667 499.598 65.8387 499.726 66.052C499.865 66.2653 499.977 66.4147 500.062 66.5H496.606C496.542 66.436 496.446 66.3027 496.318 66.1C496.201 65.8867 496.094 65.6413 495.998 65.364C495.902 65.0973 495.827 64.7933 495.774 64.452C495.731 64.1 495.71 63.7213 495.71 63.316L496.35 63.764C496.03 64.3827 495.545 64.9213 494.894 65.38C494.254 65.8387 493.481 66.196 492.574 66.452C491.678 66.708 490.681 66.836 489.582 66.836ZM490.302 63.956C491.294 63.956 492.195 63.8013 493.006 63.492C493.827 63.172 494.483 62.692 494.974 62.052C495.465 61.4013 495.71 60.5853 495.71 59.604V56.788L496.526 57.86C495.843 58.1267 495.006 58.3453 494.014 58.516C493.033 58.676 492.019 58.8093 490.974 58.916C489.534 59.044 488.451 59.2947 487.726 59.668C487.001 60.0307 486.638 60.6387 486.638 61.492C486.638 62.3133 486.937 62.932 487.534 63.348C488.142 63.7533 489.065 63.956 490.302 63.956ZM513.477 66.5V52.388H509.813V49.508H513.477V47.652C513.477 46.7773 513.584 45.9933 513.797 45.3C514.021 44.6067 514.331 44.0093 514.725 43.508C515.12 42.996 515.584 42.5747 516.117 42.244C516.661 41.9133 517.253 41.668 517.893 41.508C518.544 41.3373 519.221 41.252 519.925 41.252C520.501 41.252 520.949 41.2893 521.269 41.364C521.6 41.428 521.819 41.4867 521.925 41.54V44.436C521.797 44.3933 521.579 44.3453 521.269 44.292C520.96 44.2387 520.629 44.212 520.277 44.212C519.595 44.212 519.035 44.3133 518.597 44.516C518.16 44.7187 517.819 45.0013 517.573 45.364C517.328 45.716 517.157 46.1267 517.061 46.596C516.976 47.0547 516.933 47.5453 516.933 48.068V49.508H521.765V52.388H516.933V66.5H513.477ZM530.573 66.804C529.368 66.804 528.365 66.6013 527.565 66.196C526.765 65.78 526.131 65.2413 525.661 64.58C525.192 63.908 524.861 63.1773 524.669 62.388C524.477 61.588 524.381 60.8093 524.381 60.052C524.381 59.6573 524.381 59.2467 524.381 58.82C524.381 58.3827 524.381 57.9453 524.381 57.508V49.508H527.869V57.012C527.869 57.396 527.869 57.7747 527.869 58.148C527.869 58.5107 527.869 58.852 527.869 59.172C527.869 59.9933 527.976 60.7507 528.189 61.444C528.403 62.1267 528.776 62.6813 529.309 63.108C529.853 63.524 530.611 63.732 531.581 63.732C532.488 63.732 533.277 63.4653 533.949 62.932C534.621 62.388 535.144 61.7053 535.517 60.884C535.891 60.052 536.077 59.22 536.077 58.388L537.597 59.204C537.597 60.1853 537.432 61.1293 537.101 62.036C536.781 62.9427 536.317 63.7587 535.709 64.484C535.101 65.1987 534.36 65.764 533.485 66.18C532.621 66.596 531.651 66.804 530.573 66.804ZM536.077 66.5V49.508H539.549V66.5H536.077ZM551.208 66.788C550.643 66.788 550.077 66.7293 549.512 66.612C548.957 66.4947 548.445 66.2813 547.976 65.972C547.517 65.652 547.149 65.1987 546.872 64.612C546.595 64.0253 546.456 63.2573 546.456 62.308C546.456 62.084 546.456 61.8493 546.456 61.604C546.456 61.3587 546.456 61.108 546.456 60.852V52.388H542.376V49.508H544.52C544.979 49.508 545.336 49.492 545.592 49.46C545.859 49.4173 546.051 49.3267 546.168 49.188C546.296 49.0387 546.376 48.804 546.408 48.484C546.44 48.164 546.456 47.7267 546.456 47.172V43.892H549.928V49.508H555.128V52.388H549.928V59.924C549.928 60.1373 549.928 60.3507 549.928 60.564C549.928 60.7773 549.928 60.9747 549.928 61.156C549.928 62.0093 550.029 62.6813 550.232 63.172C550.445 63.6627 550.925 63.908 551.672 63.908C551.992 63.908 552.296 63.8813 552.584 63.828C552.872 63.7747 553.091 63.716 553.24 63.652V66.484C553.048 66.5587 552.776 66.628 552.424 66.692C552.072 66.756 551.667 66.788 551.208 66.788ZM564.636 66.804C563.431 66.804 562.428 66.6013 561.628 66.196C560.828 65.78 560.193 65.2413 559.724 64.58C559.255 63.908 558.924 63.1773 558.732 62.388C558.54 61.588 558.444 60.8093 558.444 60.052C558.444 59.6573 558.444 59.2467 558.444 58.82C558.444 58.3827 558.444 57.9453 558.444 57.508V49.508H561.932V57.012C561.932 57.396 561.932 57.7747 561.932 58.148C561.932 58.5107 561.932 58.852 561.932 59.172C561.932 59.9933 562.039 60.7507 562.252 61.444C562.465 62.1267 562.839 62.6813 563.372 63.108C563.916 63.524 564.673 63.732 565.644 63.732C566.551 63.732 567.34 63.4653 568.012 62.932C568.684 62.388 569.207 61.7053 569.58 60.884C569.953 60.052 570.14 59.22 570.14 58.388L571.66 59.204C571.66 60.1853 571.495 61.1293 571.164 62.036C570.844 62.9427 570.38 63.7587 569.772 64.484C569.164 65.1987 568.423 65.764 567.548 66.18C566.684 66.596 565.713 66.804 564.636 66.804ZM570.14 66.5V49.508H573.612V66.5H570.14ZM578.006 66.5V49.508H581.478V54.932L580.55 54.516C580.625 53.8227 580.801 53.1613 581.078 52.532C581.356 51.9027 581.724 51.3427 582.182 50.852C582.652 50.3507 583.228 49.956 583.91 49.668C584.593 49.38 585.382 49.236 586.278 49.236C586.961 49.236 587.51 49.2893 587.926 49.396C588.353 49.5027 588.614 49.588 588.71 49.652L587.974 52.916C587.868 52.8413 587.649 52.7453 587.318 52.628C586.998 52.5107 586.55 52.452 585.974 52.452C585.1 52.452 584.374 52.6067 583.798 52.916C583.222 53.2253 582.764 53.636 582.422 54.148C582.081 54.66 581.836 55.22 581.686 55.828C581.548 56.4253 581.478 57.028 581.478 57.636V66.5H578.006ZM599.402 66.82C597.653 66.82 596.106 66.4413 594.762 65.684C593.429 64.9267 592.383 63.8867 591.626 62.564C590.879 61.2307 590.506 59.7053 590.506 57.988C590.506 56.2813 590.879 54.772 591.626 53.46C592.383 52.1373 593.429 51.108 594.762 50.372C596.106 49.6253 597.653 49.252 599.402 49.252C601.151 49.252 602.693 49.6253 604.026 50.372C605.37 51.108 606.415 52.1373 607.162 53.46C607.919 54.772 608.298 56.2813 608.298 57.988C608.298 59.7053 607.919 61.2307 607.162 62.564C606.415 63.8867 605.37 64.9267 604.026 65.684C602.693 66.4413 601.151 66.82 599.402 66.82ZM599.402 63.844C600.469 63.844 601.407 63.604 602.218 63.124C603.029 62.644 603.663 61.9667 604.122 61.092C604.581 60.2067 604.81 59.172 604.81 57.988C604.81 56.8147 604.581 55.796 604.122 54.932C603.663 54.068 603.029 53.4013 602.218 52.932C601.407 52.4627 600.469 52.228 599.402 52.228C598.346 52.228 597.407 52.4627 596.586 52.932C595.775 53.4013 595.141 54.068 594.682 54.932C594.223 55.796 593.994 56.8147 593.994 57.988C593.994 59.172 594.223 60.2067 594.682 61.092C595.141 61.9667 595.775 62.644 596.586 63.124C597.407 63.604 598.346 63.844 599.402 63.844ZM620.163 73.492V49.508H623.635V73.492H620.163ZM629.107 66.836C627.784 66.836 626.557 66.5053 625.427 65.844C624.296 65.172 623.379 64.2547 622.675 63.092C621.981 61.9293 621.635 60.612 621.635 59.14C621.635 59.0973 621.635 59.0653 621.635 59.044C621.635 59.012 621.635 58.98 621.635 58.948L623.651 58.9C623.651 58.9213 623.651 58.948 623.651 58.98C623.651 59.0013 623.651 59.028 623.651 59.06C623.651 59.9347 623.875 60.724 624.323 61.428C624.781 62.1213 625.373 62.6707 626.099 63.076C626.824 63.4813 627.603 63.684 628.435 63.684C629.8 63.684 630.947 63.22 631.875 62.292C632.813 61.3533 633.283 59.9133 633.283 57.972C633.283 56.02 632.819 54.5853 631.891 53.668C630.963 52.74 629.811 52.276 628.435 52.276C627.603 52.276 626.824 52.4787 626.099 52.884C625.373 53.2787 624.781 53.8227 624.323 54.516C623.875 55.1987 623.651 55.9827 623.651 56.868L621.635 56.788C621.635 55.3053 621.981 53.9987 622.675 52.868C623.379 51.7267 624.296 50.836 625.427 50.196C626.557 49.556 627.784 49.236 629.107 49.236C630.483 49.236 631.757 49.5773 632.931 50.26C634.104 50.932 635.048 51.9187 635.763 53.22C636.488 54.5213 636.851 56.1053 636.851 57.972C636.851 59.8813 636.499 61.4973 635.795 62.82C635.091 64.1427 634.152 65.1453 632.979 65.828C631.805 66.5 630.515 66.836 629.107 66.836ZM646.582 66.836C645.302 66.836 644.177 66.6333 643.206 66.228C642.246 65.8227 641.499 65.2413 640.966 64.484C640.433 63.7267 640.166 62.8147 640.166 61.748C640.166 60.6067 640.465 59.6627 641.062 58.916C641.67 58.1693 642.502 57.5933 643.558 57.188C644.625 56.772 645.835 56.5 647.19 56.372C649.206 56.1693 650.625 55.972 651.446 55.78C652.278 55.588 652.694 55.2733 652.694 54.836C652.694 54.8253 652.694 54.8147 652.694 54.804C652.694 53.94 652.326 53.284 651.59 52.836C650.854 52.388 649.803 52.164 648.438 52.164C646.998 52.164 645.883 52.42 645.094 52.932C644.315 53.4333 643.926 54.2333 643.926 55.332H640.518C640.518 54.0307 640.854 52.9267 641.526 52.02C642.209 51.1133 643.147 50.4253 644.342 49.956C645.537 49.476 646.907 49.236 648.454 49.236C649.873 49.236 651.163 49.4547 652.326 49.892C653.499 50.3187 654.433 50.9587 655.126 51.812C655.819 52.6653 656.166 53.7267 656.166 54.996C656.166 55.22 656.166 55.444 656.166 55.668C656.166 55.8813 656.166 56.1 656.166 56.324V63.108C656.166 63.5027 656.182 63.8867 656.214 64.26C656.246 64.6227 656.305 64.948 656.39 65.236C656.486 65.5667 656.598 65.8387 656.726 66.052C656.865 66.2653 656.977 66.4147 657.062 66.5H653.606C653.542 66.436 653.446 66.3027 653.318 66.1C653.201 65.8867 653.094 65.6413 652.998 65.364C652.902 65.0973 652.827 64.7933 652.774 64.452C652.731 64.1 652.71 63.7213 652.71 63.316L653.35 63.764C653.03 64.3827 652.545 64.9213 651.894 65.38C651.254 65.8387 650.481 66.196 649.574 66.452C648.678 66.708 647.681 66.836 646.582 66.836ZM647.302 63.956C648.294 63.956 649.195 63.8013 650.006 63.492C650.827 63.172 651.483 62.692 651.974 62.052C652.465 61.4013 652.71 60.5853 652.71 59.604V56.788L653.526 57.86C652.843 58.1267 652.006 58.3453 651.014 58.516C650.033 58.676 649.019 58.8093 647.974 58.916C646.534 59.044 645.451 59.2947 644.726 59.668C644.001 60.0307 643.638 60.6387 643.638 61.492C643.638 62.3133 643.937 62.932 644.534 63.348C645.142 63.7533 646.065 63.956 647.302 63.956ZM660.381 66.5V49.508H663.853V54.932L662.925 54.516C663 53.8227 663.176 53.1613 663.453 52.532C663.731 51.9027 664.099 51.3427 664.557 50.852C665.027 50.3507 665.603 49.956 666.285 49.668C666.968 49.38 667.757 49.236 668.653 49.236C669.336 49.236 669.885 49.2893 670.301 49.396C670.728 49.5027 670.989 49.588 671.085 49.652L670.349 52.916C670.243 52.8413 670.024 52.7453 669.693 52.628C669.373 52.5107 668.925 52.452 668.349 52.452C667.475 52.452 666.749 52.6067 666.173 52.916C665.597 53.2253 665.139 53.636 664.797 54.148C664.456 54.66 664.211 55.22 664.061 55.828C663.923 56.4253 663.853 57.028 663.853 57.636V66.5H660.381ZM679.457 66.836C678.177 66.836 677.052 66.6333 676.081 66.228C675.121 65.8227 674.374 65.2413 673.841 64.484C673.308 63.7267 673.041 62.8147 673.041 61.748C673.041 60.6067 673.34 59.6627 673.937 58.916C674.545 58.1693 675.377 57.5933 676.433 57.188C677.5 56.772 678.71 56.5 680.065 56.372C682.081 56.1693 683.5 55.972 684.321 55.78C685.153 55.588 685.569 55.2733 685.569 54.836C685.569 54.8253 685.569 54.8147 685.569 54.804C685.569 53.94 685.201 53.284 684.465 52.836C683.729 52.388 682.678 52.164 681.313 52.164C679.873 52.164 678.758 52.42 677.969 52.932C677.19 53.4333 676.801 54.2333 676.801 55.332H673.393C673.393 54.0307 673.729 52.9267 674.401 52.02C675.084 51.1133 676.022 50.4253 677.217 49.956C678.412 49.476 679.782 49.236 681.329 49.236C682.748 49.236 684.038 49.4547 685.201 49.892C686.374 50.3187 687.308 50.9587 688.001 51.812C688.694 52.6653 689.041 53.7267 689.041 54.996C689.041 55.22 689.041 55.444 689.041 55.668C689.041 55.8813 689.041 56.1 689.041 56.324V63.108C689.041 63.5027 689.057 63.8867 689.089 64.26C689.121 64.6227 689.18 64.948 689.265 65.236C689.361 65.5667 689.473 65.8387 689.601 66.052C689.74 66.2653 689.852 66.4147 689.937 66.5H686.481C686.417 66.436 686.321 66.3027 686.193 66.1C686.076 65.8867 685.969 65.6413 685.873 65.364C685.777 65.0973 685.702 64.7933 685.649 64.452C685.606 64.1 685.585 63.7213 685.585 63.316L686.225 63.764C685.905 64.3827 685.42 64.9213 684.769 65.38C684.129 65.8387 683.356 66.196 682.449 66.452C681.553 66.708 680.556 66.836 679.457 66.836ZM680.177 63.956C681.169 63.956 682.07 63.8013 682.881 63.492C683.702 63.172 684.358 62.692 684.849 62.052C685.34 61.4013 685.585 60.5853 685.585 59.604V56.788L686.401 57.86C685.718 58.1267 684.881 58.3453 683.889 58.516C682.908 58.676 681.894 58.8093 680.849 58.916C679.409 59.044 678.326 59.2947 677.601 59.668C676.876 60.0307 676.513 60.6387 676.513 61.492C676.513 62.3133 676.812 62.932 677.409 63.348C678.017 63.7533 678.94 63.956 680.177 63.956ZM704.616 66.5H701.144V42.9H708.248C710.062 42.9 711.582 43.2413 712.808 43.924C714.046 44.6067 714.974 45.5293 715.592 46.692C716.222 47.844 716.536 49.1347 716.536 50.564C716.536 51.9933 716.216 53.3107 715.576 54.516C714.947 55.7107 714.014 56.6707 712.776 57.396C711.539 58.1213 710.03 58.484 708.248 58.484H704.616V66.5ZM704.616 57.3L703.048 55.604H707.848C708.979 55.604 709.928 55.4013 710.696 54.996C711.475 54.58 712.062 53.9933 712.456 53.236C712.851 52.4787 713.048 51.588 713.048 50.564C713.048 49.54 712.856 48.6707 712.472 47.956C712.088 47.2413 711.512 46.7027 710.744 46.34C709.976 45.9667 709.011 45.78 707.848 45.78H703.048L704.616 43.956V57.3ZM727.496 66.82C725.746 66.82 724.2 66.4413 722.856 65.684C721.522 64.9267 720.477 63.8867 719.72 62.564C718.973 61.2307 718.6 59.7053 718.6 57.988C718.6 56.2813 718.973 54.772 719.72 53.46C720.477 52.1373 721.522 51.108 722.856 50.372C724.2 49.6253 725.746 49.252 727.496 49.252C729.245 49.252 730.786 49.6253 732.12 50.372C733.464 51.108 734.509 52.1373 735.256 53.46C736.013 54.772 736.392 56.2813 736.392 57.988C736.392 59.7053 736.013 61.2307 735.256 62.564C734.509 63.8867 733.464 64.9267 732.12 65.684C730.786 66.4413 729.245 66.82 727.496 66.82ZM727.496 63.844C728.562 63.844 729.501 63.604 730.312 63.124C731.122 62.644 731.757 61.9667 732.216 61.092C732.674 60.2067 732.904 59.172 732.904 57.988C732.904 56.8147 732.674 55.796 732.216 54.932C731.757 54.068 731.122 53.4013 730.312 52.932C729.501 52.4627 728.562 52.228 727.496 52.228C726.44 52.228 725.501 52.4627 724.68 52.932C723.869 53.4013 723.234 54.068 722.776 54.932C722.317 55.796 722.088 56.8147 722.088 57.988C722.088 59.172 722.317 60.2067 722.776 61.092C723.234 61.9667 723.869 62.644 724.68 63.124C725.501 63.604 726.44 63.844 727.496 63.844ZM740.256 66.5V49.508H743.728V54.932L742.8 54.516C742.875 53.8227 743.051 53.1613 743.328 52.532C743.606 51.9027 743.974 51.3427 744.432 50.852C744.902 50.3507 745.478 49.956 746.16 49.668C746.843 49.38 747.632 49.236 748.528 49.236C749.211 49.236 749.76 49.2893 750.176 49.396C750.603 49.5027 750.864 49.588 750.96 49.652L750.224 52.916C750.118 52.8413 749.899 52.7453 749.568 52.628C749.248 52.5107 748.8 52.452 748.224 52.452C747.35 52.452 746.624 52.6067 746.048 52.916C745.472 53.2253 745.014 53.636 744.672 54.148C744.331 54.66 744.086 55.22 743.936 55.828C743.798 56.4253 743.728 57.028 743.728 57.636V66.5H740.256ZM761.02 66.788C760.455 66.788 759.89 66.7293 759.324 66.612C758.77 66.4947 758.258 66.2813 757.788 65.972C757.33 65.652 756.962 65.1987 756.684 64.612C756.407 64.0253 756.268 63.2573 756.268 62.308C756.268 62.084 756.268 61.8493 756.268 61.604C756.268 61.3587 756.268 61.108 756.268 60.852V52.388H752.188V49.508H754.332C754.791 49.508 755.148 49.492 755.404 49.46C755.671 49.4173 755.863 49.3267 755.98 49.188C756.108 49.0387 756.188 48.804 756.22 48.484C756.252 48.164 756.268 47.7267 756.268 47.172V43.892H759.74V49.508H764.94V52.388H759.74V59.924C759.74 60.1373 759.74 60.3507 759.74 60.564C759.74 60.7773 759.74 60.9747 759.74 61.156C759.74 62.0093 759.842 62.6813 760.044 63.172C760.258 63.6627 760.738 63.908 761.484 63.908C761.804 63.908 762.108 63.8813 762.396 63.828C762.684 63.7747 762.903 63.716 763.052 63.652V66.484C762.86 66.5587 762.588 66.628 762.236 66.692C761.884 66.756 761.479 66.788 761.02 66.788ZM774.448 66.804C773.243 66.804 772.24 66.6013 771.44 66.196C770.64 65.78 770.006 65.2413 769.536 64.58C769.067 63.908 768.736 63.1773 768.544 62.388C768.352 61.588 768.256 60.8093 768.256 60.052C768.256 59.6573 768.256 59.2467 768.256 58.82C768.256 58.3827 768.256 57.9453 768.256 57.508V49.508H771.744V57.012C771.744 57.396 771.744 57.7747 771.744 58.148C771.744 58.5107 771.744 58.852 771.744 59.172C771.744 59.9933 771.851 60.7507 772.064 61.444C772.278 62.1267 772.651 62.6813 773.184 63.108C773.728 63.524 774.486 63.732 775.456 63.732C776.363 63.732 777.152 63.4653 777.824 62.932C778.496 62.388 779.019 61.7053 779.392 60.884C779.766 60.052 779.952 59.22 779.952 58.388L781.472 59.204C781.472 60.1853 781.307 61.1293 780.976 62.036C780.656 62.9427 780.192 63.7587 779.584 64.484C778.976 65.1987 778.235 65.764 777.36 66.18C776.496 66.596 775.526 66.804 774.448 66.804ZM779.952 66.5V49.508H783.424V66.5H779.952ZM798.971 65.14C799.931 65.2253 800.774 65.4067 801.499 65.684C802.224 65.9507 802.79 66.3453 803.195 66.868C803.611 67.4013 803.819 68.1 803.819 68.964C803.819 69.9347 803.488 70.7773 802.827 71.492C802.176 72.2173 801.2 72.7773 799.899 73.172C798.598 73.5773 796.982 73.78 795.051 73.78C792.288 73.78 790.182 73.38 788.731 72.58C787.28 71.78 786.555 70.692 786.555 69.316C786.555 68.9 786.603 68.532 786.699 68.212C786.795 67.892 786.912 67.6253 787.051 67.412L790.283 67.892C790.208 67.9987 790.134 68.1533 790.059 68.356C789.984 68.5693 789.947 68.8253 789.947 69.124C789.947 69.8813 790.411 70.42 791.339 70.74C792.267 71.06 793.552 71.22 795.195 71.22C796.4 71.22 797.398 71.1347 798.187 70.964C798.987 70.804 799.584 70.5693 799.979 70.26C800.374 69.9507 800.571 69.588 800.571 69.172C800.571 68.5427 800.299 68.148 799.755 67.988C799.211 67.828 798.555 67.716 797.787 67.652L791.339 67.124C790.219 67.028 789.302 66.692 788.587 66.116C787.883 65.54 787.531 64.8147 787.531 63.94C787.531 63.396 787.67 62.8893 787.947 62.42C788.224 61.9507 788.544 61.556 788.907 61.236C789.28 60.916 789.6 60.7187 789.867 60.644L792.139 61.732C791.894 61.764 791.595 61.9293 791.243 62.228C790.902 62.516 790.731 62.8573 790.731 63.252C790.731 63.6147 790.88 63.9133 791.179 64.148C791.488 64.3827 792.086 64.5373 792.971 64.612L798.971 65.14ZM801.099 49.508H804.251L802.955 56.148C802.72 57.3853 802.288 58.5053 801.659 59.508C801.04 60.5 800.198 61.284 799.131 61.86C798.075 62.436 796.758 62.724 795.179 62.724C793.536 62.724 792.123 62.4413 790.939 61.876C789.755 61.3107 788.843 60.5267 788.203 59.524C787.574 58.5107 787.259 57.3587 787.259 56.068C787.259 54.756 787.584 53.5827 788.235 52.548C788.896 51.5133 789.803 50.7027 790.955 50.116C792.118 49.5293 793.446 49.236 794.939 49.236C796.198 49.236 797.312 49.4493 798.283 49.876C799.264 50.3027 800.043 50.8467 800.619 51.508C801.195 52.1693 801.51 52.8573 801.563 53.572L800.571 53.684L801.099 49.508ZM795.163 59.892C796.091 59.892 796.891 59.7427 797.563 59.444C798.235 59.1347 798.752 58.692 799.115 58.116C799.478 57.5293 799.659 56.8253 799.659 56.004C799.659 55.1933 799.478 54.5 799.115 53.924C798.752 53.3373 798.235 52.8893 797.563 52.58C796.891 52.26 796.096 52.1 795.179 52.1C794.294 52.1 793.51 52.2653 792.827 52.596C792.155 52.916 791.627 53.3693 791.243 53.956C790.859 54.5427 790.667 55.2413 790.667 56.052C790.667 56.8627 790.848 57.556 791.211 58.132C791.574 58.6973 792.091 59.1347 792.763 59.444C793.435 59.7427 794.235 59.892 795.163 59.892ZM812.676 66.836C811.396 66.836 810.27 66.6333 809.3 66.228C808.34 65.8227 807.593 65.2413 807.06 64.484C806.526 63.7267 806.26 62.8147 806.26 61.748C806.26 60.6067 806.558 59.6627 807.156 58.916C807.764 58.1693 808.596 57.5933 809.652 57.188C810.718 56.772 811.929 56.5 813.284 56.372C815.3 56.1693 816.718 55.972 817.54 55.78C818.372 55.588 818.788 55.2733 818.788 54.836C818.788 54.8253 818.788 54.8147 818.788 54.804C818.788 53.94 818.42 53.284 817.684 52.836C816.948 52.388 815.897 52.164 814.532 52.164C813.092 52.164 811.977 52.42 811.188 52.932C810.409 53.4333 810.02 54.2333 810.02 55.332H806.612C806.612 54.0307 806.948 52.9267 807.62 52.02C808.302 51.1133 809.241 50.4253 810.436 49.956C811.63 49.476 813.001 49.236 814.548 49.236C815.966 49.236 817.257 49.4547 818.42 49.892C819.593 50.3187 820.526 50.9587 821.22 51.812C821.913 52.6653 822.26 53.7267 822.26 54.996C822.26 55.22 822.26 55.444 822.26 55.668C822.26 55.8813 822.26 56.1 822.26 56.324V63.108C822.26 63.5027 822.276 63.8867 822.308 64.26C822.34 64.6227 822.398 64.948 822.484 65.236C822.58 65.5667 822.692 65.8387 822.82 66.052C822.958 66.2653 823.07 66.4147 823.156 66.5H819.7C819.636 66.436 819.54 66.3027 819.412 66.1C819.294 65.8867 819.188 65.6413 819.092 65.364C818.996 65.0973 818.921 64.7933 818.868 64.452C818.825 64.1 818.804 63.7213 818.804 63.316L819.444 63.764C819.124 64.3827 818.638 64.9213 817.988 65.38C817.348 65.8387 816.574 66.196 815.668 66.452C814.772 66.708 813.774 66.836 812.676 66.836ZM813.396 63.956C814.388 63.956 815.289 63.8013 816.1 63.492C816.921 63.172 817.577 62.692 818.068 62.052C818.558 61.4013 818.804 60.5853 818.804 59.604V56.788L819.62 57.86C818.937 58.1267 818.1 58.3453 817.108 58.516C816.126 58.676 815.113 58.8093 814.068 58.916C812.628 59.044 811.545 59.2947 810.82 59.668C810.094 60.0307 809.732 60.6387 809.732 61.492C809.732 62.3133 810.03 62.932 810.628 63.348C811.236 63.7533 812.158 63.956 813.396 63.956ZM830.139 41.492V66.5H826.715V41.492H830.139ZM851.059 66.836C849.352 66.836 847.822 66.4787 846.467 65.764C845.123 65.0387 844.062 64.0093 843.283 62.676C842.515 61.3427 842.131 59.7747 842.131 57.972C842.131 56.1693 842.515 54.6173 843.283 53.316C844.062 52.004 845.123 50.996 846.467 50.292C847.822 49.588 849.352 49.236 851.059 49.236C852.35 49.236 853.496 49.4333 854.499 49.828C855.502 50.212 856.35 50.724 857.043 51.364C857.736 52.004 858.264 52.708 858.627 53.476C858.99 54.244 859.171 55.012 859.171 55.78C859.171 55.7907 859.171 55.8067 859.171 55.828C859.171 55.8493 859.171 55.8707 859.171 55.892H855.731C855.731 55.8387 855.726 55.78 855.715 55.716C855.704 55.6413 855.694 55.572 855.683 55.508C855.598 54.8787 855.352 54.3187 854.947 53.828C854.542 53.3373 854.008 52.948 853.347 52.66C852.686 52.372 851.912 52.228 851.027 52.228C850.056 52.228 849.16 52.4413 848.339 52.868C847.528 53.284 846.878 53.9187 846.387 54.772C845.896 55.6253 845.651 56.692 845.651 57.972C845.651 59.252 845.891 60.3293 846.371 61.204C846.862 62.068 847.512 62.724 848.323 63.172C849.144 63.62 850.046 63.844 851.027 63.844C852.083 63.844 852.947 63.684 853.619 63.364C854.291 63.0333 854.798 62.596 855.139 62.052C855.48 61.4973 855.678 60.9 855.731 60.26H859.171C859.171 61.028 858.995 61.8067 858.643 62.596C858.291 63.3747 857.774 64.084 857.091 64.724C856.408 65.364 855.56 65.876 854.547 66.26C853.544 66.644 852.382 66.836 851.059 66.836ZM871.214 66.82C869.465 66.82 867.918 66.4413 866.574 65.684C865.241 64.9267 864.196 63.8867 863.438 62.564C862.692 61.2307 862.318 59.7053 862.318 57.988C862.318 56.2813 862.692 54.772 863.438 53.46C864.196 52.1373 865.241 51.108 866.574 50.372C867.918 49.6253 869.465 49.252 871.214 49.252C872.964 49.252 874.505 49.6253 875.838 50.372C877.182 51.108 878.228 52.1373 878.974 53.46C879.732 54.772 880.11 56.2813 880.11 57.988C880.11 59.7053 879.732 61.2307 878.974 62.564C878.228 63.8867 877.182 64.9267 875.838 65.684C874.505 66.4413 872.964 66.82 871.214 66.82ZM871.214 63.844C872.281 63.844 873.22 63.604 874.03 63.124C874.841 62.644 875.476 61.9667 875.934 61.092C876.393 60.2067 876.622 59.172 876.622 57.988C876.622 56.8147 876.393 55.796 875.934 54.932C875.476 54.068 874.841 53.4013 874.03 52.932C873.22 52.4627 872.281 52.228 871.214 52.228C870.158 52.228 869.22 52.4627 868.398 52.932C867.588 53.4013 866.953 54.068 866.494 54.932C866.036 55.796 865.806 56.8147 865.806 57.988C865.806 59.172 866.036 60.2067 866.494 61.092C866.953 61.9667 867.588 62.644 868.398 63.124C869.22 63.604 870.158 63.844 871.214 63.844ZM896.071 66.5V58.66C896.071 58.2013 896.071 57.812 896.071 57.492C896.071 57.172 896.071 56.8733 896.071 56.596C896.071 55.764 895.943 55.0333 895.687 54.404C895.431 53.764 895.01 53.268 894.423 52.916C893.836 52.5533 893.052 52.372 892.071 52.372C891.207 52.372 890.423 52.5853 889.719 53.012C889.026 53.4387 888.471 54.02 888.055 54.756C887.65 55.4813 887.447 56.308 887.447 57.236L885.959 56.5C885.959 55.124 886.284 53.892 886.935 52.804C887.586 51.7053 888.455 50.836 889.543 50.196C890.642 49.556 891.842 49.236 893.143 49.236C894.487 49.236 895.634 49.4973 896.583 50.02C897.543 50.532 898.274 51.268 898.775 52.228C899.287 53.1773 899.543 54.3133 899.543 55.636C899.543 56.1267 899.543 56.6707 899.543 57.268C899.543 57.8653 899.543 58.4413 899.543 58.996V66.5H896.071ZM883.975 66.5V49.508H887.447V66.5H883.975ZM910.739 66.788C910.174 66.788 909.608 66.7293 909.043 66.612C908.488 66.4947 907.976 66.2813 907.507 65.972C907.048 65.652 906.68 65.1987 906.403 64.612C906.126 64.0253 905.987 63.2573 905.987 62.308C905.987 62.084 905.987 61.8493 905.987 61.604C905.987 61.3587 905.987 61.108 905.987 60.852V52.388H901.907V49.508H904.051C904.51 49.508 904.867 49.492 905.123 49.46C905.39 49.4173 905.582 49.3267 905.699 49.188C905.827 49.0387 905.907 48.804 905.939 48.484C905.971 48.164 905.987 47.7267 905.987 47.172V43.892H909.459V49.508H914.659V52.388H909.459V59.924C909.459 60.1373 909.459 60.3507 909.459 60.564C909.459 60.7773 909.459 60.9747 909.459 61.156C909.459 62.0093 909.56 62.6813 909.763 63.172C909.976 63.6627 910.456 63.908 911.203 63.908C911.523 63.908 911.827 63.8813 912.115 63.828C912.403 63.7747 912.622 63.716 912.771 63.652V66.484C912.579 66.5587 912.307 66.628 911.955 66.692C911.603 66.756 911.198 66.788 910.739 66.788ZM918.023 66.5V49.508H921.447V66.5H918.023ZM919.751 45.988C919.154 45.988 918.636 45.828 918.199 45.508C917.772 45.1773 917.559 44.724 917.559 44.148C917.559 43.5827 917.772 43.14 918.199 42.82C918.636 42.4893 919.154 42.324 919.751 42.324C920.338 42.324 920.844 42.4893 921.271 42.82C921.708 43.14 921.927 43.5827 921.927 44.148C921.927 44.724 921.708 45.1773 921.271 45.508C920.844 45.828 920.338 45.988 919.751 45.988ZM938.165 66.5V58.66C938.165 58.2013 938.165 57.812 938.165 57.492C938.165 57.172 938.165 56.8733 938.165 56.596C938.165 55.764 938.037 55.0333 937.781 54.404C937.525 53.764 937.104 53.268 936.517 52.916C935.93 52.5533 935.146 52.372 934.165 52.372C933.301 52.372 932.517 52.5853 931.813 53.012C931.12 53.4387 930.565 54.02 930.149 54.756C929.744 55.4813 929.541 56.308 929.541 57.236L928.053 56.5C928.053 55.124 928.378 53.892 929.029 52.804C929.68 51.7053 930.549 50.836 931.637 50.196C932.736 49.556 933.936 49.236 935.237 49.236C936.581 49.236 937.728 49.4973 938.677 50.02C939.637 50.532 940.368 51.268 940.869 52.228C941.381 53.1773 941.637 54.3133 941.637 55.636C941.637 56.1267 941.637 56.6707 941.637 57.268C941.637 57.8653 941.637 58.4413 941.637 58.996V66.5H938.165ZM926.069 66.5V49.508H929.541V66.5H926.069ZM947.238 59.22V56.516H959.75L959.27 57.316C959.27 57.252 959.27 57.188 959.27 57.124C959.27 57.0493 959.27 56.9853 959.27 56.932C959.27 56.068 959.084 55.2733 958.71 54.548C958.337 53.812 957.777 53.2253 957.03 52.788C956.294 52.34 955.372 52.116 954.262 52.116C953.153 52.116 952.177 52.356 951.334 52.836C950.502 53.3053 949.852 53.9773 949.382 54.852C948.924 55.716 948.694 56.756 948.694 57.972C948.694 59.2093 948.918 60.276 949.366 61.172C949.814 62.0573 950.46 62.74 951.302 63.22C952.145 63.7 953.153 63.94 954.326 63.94C955.148 63.94 955.857 63.86 956.454 63.7C957.062 63.5293 957.558 63.3053 957.942 63.028C958.337 62.7507 958.636 62.452 958.838 62.132C959.041 61.8013 959.158 61.476 959.19 61.156H962.646C962.582 61.8493 962.353 62.5373 961.958 63.22C961.574 63.892 961.025 64.5053 960.31 65.06C959.606 65.604 958.742 66.0413 957.718 66.372C956.705 66.692 955.537 66.852 954.214 66.852C952.444 66.852 950.892 66.4787 949.558 65.732C948.225 64.9853 947.185 63.9507 946.438 62.628C945.692 61.2947 945.318 59.7693 945.318 58.052C945.318 56.3027 945.697 54.7667 946.454 53.444C947.212 52.1213 948.262 51.092 949.606 50.356C950.95 49.6093 952.492 49.236 954.23 49.236C956.001 49.236 957.532 49.6093 958.822 50.356C960.124 51.1027 961.126 52.132 961.83 53.444C962.534 54.756 962.886 56.2653 962.886 57.972C962.886 58.1747 962.881 58.4093 962.87 58.676C962.86 58.9427 962.844 59.124 962.822 59.22H947.238ZM978.852 66.5V58.66C978.852 58.2013 978.852 57.812 978.852 57.492C978.852 57.172 978.852 56.8733 978.852 56.596C978.852 55.764 978.724 55.0333 978.468 54.404C978.212 53.764 977.791 53.268 977.204 52.916C976.618 52.5533 975.834 52.372 974.852 52.372C973.988 52.372 973.204 52.5853 972.5 53.012C971.807 53.4387 971.252 54.02 970.836 54.756C970.431 55.4813 970.228 56.308 970.228 57.236L968.74 56.5C968.74 55.124 969.066 53.892 969.716 52.804C970.367 51.7053 971.236 50.836 972.324 50.196C973.423 49.556 974.623 49.236 975.924 49.236C977.268 49.236 978.415 49.4973 979.364 50.02C980.324 50.532 981.055 51.268 981.556 52.228C982.068 53.1773 982.324 54.3133 982.324 55.636C982.324 56.1267 982.324 56.6707 982.324 57.268C982.324 57.8653 982.324 58.4413 982.324 58.996V66.5H978.852ZM966.756 66.5V49.508H970.228V66.5H966.756ZM993.52 66.788C992.955 66.788 992.39 66.7293 991.824 66.612C991.27 66.4947 990.758 66.2813 990.288 65.972C989.83 65.652 989.462 65.1987 989.184 64.612C988.907 64.0253 988.768 63.2573 988.768 62.308C988.768 62.084 988.768 61.8493 988.768 61.604C988.768 61.3587 988.768 61.108 988.768 60.852V52.388H984.688V49.508H986.832C987.291 49.508 987.648 49.492 987.904 49.46C988.171 49.4173 988.363 49.3267 988.48 49.188C988.608 49.0387 988.688 48.804 988.72 48.484C988.752 48.164 988.768 47.7267 988.768 47.172V43.892H992.24V49.508H997.44V52.388H992.24V59.924C992.24 60.1373 992.24 60.3507 992.24 60.564C992.24 60.7773 992.24 60.9747 992.24 61.156C992.24 62.0093 992.342 62.6813 992.544 63.172C992.758 63.6627 993.238 63.908 993.984 63.908C994.304 63.908 994.608 63.8813 994.896 63.828C995.184 63.7747 995.403 63.716 995.552 63.652V66.484C995.36 66.5587 995.088 66.628 994.736 66.692C994.384 66.756 993.979 66.788 993.52 66.788ZM1006.14 66.836C1004.86 66.836 1003.74 66.6333 1002.77 66.228C1001.81 65.8227 1001.06 65.2413 1000.53 64.484C999.995 63.7267 999.728 62.8147 999.728 61.748C999.728 60.6067 1000.03 59.6627 1000.62 58.916C1001.23 58.1693 1002.06 57.5933 1003.12 57.188C1004.19 56.772 1005.4 56.5 1006.75 56.372C1008.77 56.1693 1010.19 55.972 1011.01 55.78C1011.84 55.588 1012.26 55.2733 1012.26 54.836C1012.26 54.8253 1012.26 54.8147 1012.26 54.804C1012.26 53.94 1011.89 53.284 1011.15 52.836C1010.42 52.388 1009.37 52.164 1008 52.164C1006.56 52.164 1005.45 52.42 1004.66 52.932C1003.88 53.4333 1003.49 54.2333 1003.49 55.332H1000.08C1000.08 54.0307 1000.42 52.9267 1001.09 52.02C1001.77 51.1133 1002.71 50.4253 1003.9 49.956C1005.1 49.476 1006.47 49.236 1008.02 49.236C1009.44 49.236 1010.73 49.4547 1011.89 49.892C1013.06 50.3187 1014 50.9587 1014.69 51.812C1015.38 52.6653 1015.73 53.7267 1015.73 54.996C1015.73 55.22 1015.73 55.444 1015.73 55.668C1015.73 55.8813 1015.73 56.1 1015.73 56.324V63.108C1015.73 63.5027 1015.74 63.8867 1015.78 64.26C1015.81 64.6227 1015.87 64.948 1015.95 65.236C1016.05 65.5667 1016.16 65.8387 1016.29 66.052C1016.43 66.2653 1016.54 66.4147 1016.62 66.5H1013.17C1013.1 66.436 1013.01 66.3027 1012.88 66.1C1012.76 65.8867 1012.66 65.6413 1012.56 65.364C1012.46 65.0973 1012.39 64.7933 1012.34 64.452C1012.29 64.1 1012.27 63.7213 1012.27 63.316L1012.91 63.764C1012.59 64.3827 1012.11 64.9213 1011.46 65.38C1010.82 65.8387 1010.04 66.196 1009.14 66.452C1008.24 66.708 1007.24 66.836 1006.14 66.836ZM1006.86 63.956C1007.86 63.956 1008.76 63.8013 1009.57 63.492C1010.39 63.172 1011.05 62.692 1011.54 62.052C1012.03 61.4013 1012.27 60.5853 1012.27 59.604V56.788L1013.09 57.86C1012.41 58.1267 1011.57 58.3453 1010.58 58.516C1009.6 58.676 1008.58 58.8093 1007.54 58.916C1006.1 59.044 1005.01 59.2947 1004.29 59.668C1003.56 60.0307 1003.2 60.6387 1003.2 61.492C1003.2 62.3133 1003.5 62.932 1004.1 63.348C1004.7 63.7533 1005.63 63.956 1006.86 63.956ZM1023.61 41.492V66.5H1020.18V41.492H1023.61Z" fill="#171A1C"/>
</g>
<defs>
<linearGradient id="paint0_linear_169_480" x1="20" y1="54.5" x2="265" y2="54.5" gradientUnits="userSpaceOnUse">
<stop stop-color="#44A3DA"/>
<stop offset="0.7" stop-color="#2775C2"/>
<stop offset="1" stop-color="#0A47A9"/>
</linearGradient>
<linearGradient id="paint1_linear_169_480" x1="20" y1="54.5" x2="265" y2="54.5" gradientUnits="userSpaceOnUse">
<stop stop-color="#44A3DA"/>
<stop offset="0.7" stop-color="#2775C2"/>
<stop offset="1" stop-color="#0A47A9"/>
</linearGradient>
<linearGradient id="paint2_linear_169_480" x1="20" y1="54.5" x2="265" y2="54.5" gradientUnits="userSpaceOnUse">
<stop stop-color="#44A3DA"/>
<stop offset="0.7" stop-color="#2775C2"/>
<stop offset="1" stop-color="#0A47A9"/>
</linearGradient>
<clipPath id="clip0_169_480">
<rect width="1046" height="109" fill="white"/>
</clipPath>
</defs>
</svg>
